<svg fill="#fff" id="Capa_1" enable-background="new 0 0 510.009 510.009" height="512" viewBox="0 0 510.009 510.009" width="512" xmlns="http://www.w3.org/2000/svg"><g><path d="m374.999 495.009h15v15h-15z"/><path d="m217.499 345.081h15v15h-15z"/><path d="m247.499 345.081h15v15h-15z"/><path d="m277.499 345.081h15v15h-15z"/><path d="m435.042 195.017v-15h29.952v-75h-29.952v-15h-60.017v29.992h-15.023v-120.009h-45.017v44.977h15v-29.977h15.017v105.009h-15.017v-60.032h-15v60.032h-119.967v-120.009h-45.017v120.009h-15.018v-29.992h-60.016v15h-29.952v75h29.952v15h60.017v-29.992h15.018v150.112h-44.999v74.888h45v74.977h-90v45.008h299.997v-15h-284.998v-15.008h360.071v15.008h-30.074v15h45.074v-45.008h-90.071v-74.977h45.071v-74.888h-45.071v-150.113h15.023v29.992h60.017zm-315.059-15h-30.016v-30.04h-15v15.04h-14.952v-45h14.952v14.96h15v-29.96h30.017v75zm45.018-165.017h15.017v105.009h-15.017zm0 150.024h15.017v150.112h-15.017zm30.017 150.113v-150.113h119.968v150.112h-119.968zm-30.016 74.887h15.016v74.977h-15.016zm30.016 0h119.968v74.977h-119.968zm149.984 74.977h-15.017v-74.977h15.017zm45.071-89.977c-80.7 0-189.369 0-270.071 0v-44.888h270.071zm-45.071-59.887h-15.017v-150.113h15.017zm29.993-165.113c-68.399 0-171.583 0-239.985 0v-15.016h239.985zm74.999-30.007v45h-14.952v-45zm-59.969-15h30.017v75h-30.017z"/></g></svg>