<svg fill="#fff" height="512" viewBox="0 0 64 64" width="512" xmlns="http://www.w3.org/2000/svg"><g id="outline"><path d="m59.707 6.707-1.414-1.414-3 3a1 1 0 0 0 0 1.414l3 3 1.414-1.414-1.293-1.293h3.586v-2h-3.586z"/><path d="m4.293 11.293 1.414 1.414 3-3a1 1 0 0 0 0-1.414l-3-3-1.414 1.414 1.293 1.293h-3.586v2h3.586z"/><path d="m55.989 21.852c0-.021-.007-.041-.011-.062l-2.917-13.614 2.8-4.661a1 1 0 0 0 -.861-1.515h-46a1 1 0 0 0 -.857 1.515l2.8 4.662-2.932 13.675a26.2 26.2 0 0 0 .978 12.258l-1.989 26.816a1 1 0 0 0 1 1.074h48a1 1 0 0 0 1-1.074l-1.989-26.816a26.2 26.2 0 0 0 .978-12.258zm-46.011.358 3-14a1 1 0 0 0 -.121-.725l-2.09-3.485h42.466l-2.09 3.485a1 1 0 0 0 -.121.725l2.994 13.969a24.265 24.265 0 0 1 -.871 11.22c-5.336 4.16-8.078 6.267-12.447 7.648a29.6 29.6 0 0 1 -17.4 0 27.792 27.792 0 0 1 -12.416-7.567 24.2 24.2 0 0 1 -.904-11.27zm23.022 37.79v-6h-2v6h-21.923l1.759-23.752a30.048 30.048 0 0 0 11.869 6.708 32.312 32.312 0 0 0 9.4 1.4 30.449 30.449 0 0 0 9.2-1.4c4.343-1.372 7.1-3.341 11.839-7.017l1.779 24.061z"/><path d="m32 34a2.244 2.244 0 0 1 2.077 1.385l1.846-.77a4.25 4.25 0 0 0 -7.846 0l1.846.77a2.244 2.244 0 0 1 2.077-1.385z"/><path d="m31 36h2v2h-2z"/><path d="m15 6h2v4h-2z"/><path d="m15 12h2v4h-2z"/><path d="m15 18h2v4h-2z"/><path d="m15 24h2v4h-2z"/><path d="m15 30h2v4h-2z"/><path d="m46 6h2v4h-2z"/><path d="m46 12h2v4h-2z"/><path d="m46 18h2v4h-2z"/><path d="m46 24h2v4h-2z"/><path d="m46 30h2v4h-2z"/><path d="m49.5 43.979h1.999v12.042h-1.999z" transform="matrix(.997 -.083 .083 .997 -3.978 4.367)"/><path d="m7.479 49h12.042v1.999h-12.042z" transform="matrix(.083 -.997 .997 .083 -37.448 59.301)"/></g></svg>