<svg fill="#fff" height="512pt" viewBox="0 0 512 512" width="512pt" xmlns="http://www.w3.org/2000/svg"><path d="m394.191406 199.085938-63.191406-15.796876v-33.289062h30v-90h-23.144531l23.125-60h-212.269531l24.84375 60h-22.554688v90h30v33.289062l-63.191406 15.796876c-33.449219 8.363281-56.808594 38.28125-56.808594 72.761718v240.152344h390v-240.152344c0-34.480468-23.359375-64.398437-56.808594-72.761718zm26.808594 131.914062h-52.445312c-22.703126 0-45.253907-5.558594-65.394532-15.910156 29.273438-9.070313 65.269532-14.089844 102.839844-14.089844 5.007812 0 10.019531.09375 15 .269531zm-227.398438-301h123.667969l-11.566406 30h-99.679687zm137.398438 60v30h-150v-30zm-205.914062 138.191406 85.914062-21.480468v-56.710938h90v56.710938l85.914062 21.480468c19.875 4.96875 33.808594 22.625 34.074219 43.0625-4.984375-.164062-9.988281-.253906-14.988281-.253906-50.402344 0-98.746094 8.578125-134.363281 23.683594-23.113281-14.621094-49.390625-23.582032-76.777344-26.050782-31.960937-2.886718-64.023437 3.179688-92.722656 17.527344l-11.136719 5.570313v-19.882813c0-20.6875 14.015625-38.640625 34.085938-43.65625zm-34.085938 253.808594v-156.730469l24.550781-12.273437c48.644531-24.324219 105.894531-19.160156 149.402344 13.472656 29.695313 22.265625 66.488281 34.53125 103.601563 34.53125h52.445312v121zm0 0"/><path d="m301 421h30v30h-30zm0 0"/><path d="m241 361h30v30h-30zm0 0"/><path d="m361 391h30v30h-30zm0 0"/><path d="m166 361c-24.8125 0-45 20.1875-45 45s20.1875 45 45 45 45-20.1875 45-45-20.1875-45-45-45zm0 60c-8.269531 0-15-6.730469-15-15s6.730469-15 15-15 15 6.730469 15 15-6.730469 15-15 15zm0 0"/><path d="m61 30v30h-30v30h30v30h30v-30h30v-30h-30v-30zm0 0"/><path d="m482 90h-30v30h-30v30h30v30h30v-30h30v-30h-30zm0 0"/><path d="m0 150h30v30h-30zm0 0"/><path d="m391 30h30v30h-30zm0 0"/><path d="m482 240h30v30h-30zm0 0"/></svg>