<svg  height="512pt" viewBox="-41 0 512 512" width="512pt" xmlns="http://www.w3.org/2000/svg"><path d="m378.21875 99.109375c-11.445312-5.722656-19.460938-16.578125-21.566406-29.203125l-1.652344-9.90625h-280l-1.652344 9.90625c-2.101562 12.625-10.121094 23.480469-21.566406 29.203125l-1.78125.890625h330zm0 0" fill="#f5737f"/><path d="m397.890625 108.945312-17.890625-8.945312h-330l-17.890625 8.945312c-12.125 6.0625-20.234375 27.796876-21.808594 41.054688-.1875 1.558594-.300781 70-.300781 70h410s-.113281-68.441406-.300781-70c-1.574219-13.257812-9.683594-34.992188-21.808594-41.054688zm0 0" fill="#ff765b"/><path d="m365 10h-300c-11.046875 0-20 8.953125-20 20v30h340v-30c0-11.046875-8.953125-20-20-20zm0 0" fill="#f5737f"/><path d="m10 380h410v122h-410zm0 0" fill="#ff765b"/><path d="m10 220h410v160h-410zm0 0" fill="#e6e6e6"/><path d="m429.628906 148.820312c0-17.820312-10.640625-40.507812-27.269531-48.820312l-19.667969-9.835938c-8.027344-4.011718-13.84375-11.46875-15.832031-20.164062h18.140625c5.523438 0 10-4.476562 10-10v-30c0-16.542969-13.457031-30-30-30h-300c-16.542969 0-30 13.457031-30 30v30c0 5.523438 4.476562 10 10 10h18.140625c-1.988281 8.695312-7.804687 16.152344-15.832031 20.164062l-19.667969 9.835938c-16.628906 8.3125-27.269531 37-27.269531 48.820312 0 .363282-.371094 353.179688-.371094 353.179688 0 5.523438 4.476562 10 10 10h410c5.523438 0 10-4.476562 10-10 0 0-.371094-335.359375-.371094-353.179688zm-409.628906 81.179688h390v140h-390zm35-200c0-5.515625 4.484375-10 10-10h300c5.515625 0 10 4.484375 10 10v20h-320zm291.527344 40 .261718 1.554688c1.105469 6.628906 3.535157 12.886718 7.042969 18.445312h-277.664062c3.507812-5.558594 5.9375-11.816406 7.042969-18.449219l.261718-1.550781zm-309.945313 47.890625 15.777344-7.890625h325.28125l15.773437 7.890625c7.191407 3.59375 14.414063 19.871094 16.195313 32.109375h-79.609375c-5.511719 0-10 4.480469-10 10 0 5.511719 4.488281 10 10 10h79.863281c.050781 11.613281.089844 26.632812.117188 40h-389.960938c.027344-13.367188.066407-28.386719.117188-40h69.863281c5.511719 0 10-4.488281 10-10 0-5.519531-4.488281-10-10-10h-69.609375c1.777344-12.238281 9.003906-28.515625 16.191406-32.109375zm373.417969 374.109375h-390v-30h70c5.511719 0 10-4.488281 10-10 0-5.519531-4.488281-10-10-10h-70v-52h390v52h-80c-5.511719 0-10 4.480469-10 10 0 5.511719 4.488281 10 10 10h80zm0 0"/><path d="m147.925781 256.441406c-3.1875-1.832031-10.894531-3.847656-12.277343 1.300782l-19.589844 67.207031-10.539063-43.148438c-.746093-2.976562-3.351562-4.464843-7.816406-4.464843-4.546875 0-7.1875 1.488281-7.933594 4.464843l-10.539062 43.148438s-19.535157-67.003907-19.59375-67.207031c-1.480469-5.082032-9.082031-3.136719-12.277344-1.300782-2.136719 1.230469-4 3.320313-3.097656 6.011719 0 0 24.453125 77.691406 24.550781 77.996094 1.328125 4.226562 6.664062 5.457031 10.539062 5.457031 3.707032 0 9.28125-1.230469 10.292969-5.457031l8.058594-33.476563s7.90625 33.339844 7.9375 33.476563c1.003906 4.234375 6.617187 5.457031 10.292969 5.457031 5.785156 0 9.296875-1.816406 10.539062-5.457031 0 0 24.542969-77.972657 24.550782-77.996094.832031-2.632813-.824219-4.707031-3.097657-6.011719zm0 0"/><path d="m223.792969 255.792969c-1.710938-.953125-4.003907-1.273438-5.683594-1.273438-3.128906 0-8.058594.976563-8.058594 4.960938v32.363281h-27.902343s0-32.164062 0-32.363281c0-3.964844-4.988282-4.960938-8.058594-4.960938-3.125 0-8.0625.980469-8.0625 4.960938v80.597656c0 3.933594 4.984375 5.085937 8.0625 5.085937 2.96875 0 8.058594-1.1875 8.058594-5.085937v-35.585937h27.902343v35.585937c0 3.921875 4.996094 5.085937 8.058594 5.085937 3.058594 0 8.0625-1.222656 8.0625-5.085937 0 0 0-80.183594 0-80.597656-.003906-1.746094-1-2.917969-2.378906-3.6875zm0 0"/><path d="m298.460938 268.65625c3.679687-.003906 5.082031-4.136719 5.082031-7.195312 0-3.09375-1.464844-6.941407-5.082031-6.941407h-44.144532c-1.902344 0-3.554687.457031-4.960937 1.363281-1.40625.910157-2.109375 2.152344-2.109375 3.722657v80.472656c0 3.609375 4.042968 5.085937 7.070312 5.085937h44.144532c3.613281 0 5.082031-3.867187 5.082031-6.945312 0-2.972656-1.398438-7.191406-5.082031-7.191406h-35.09375v-24.925782h18.847656c3.304687 0 5.085937-3.21875 5.085937-6.199218 0-3.015625-1.683593-6.449219-5.085937-6.449219h-18.847656v-24.796875zm0 0"/><path d="m378.253906 256.503906c-2.355468-1.320312-4.734375-1.984375-7.128906-1.984375-2.1875 0-3.835938 1.363281-4.835938 3.222657l-18.972656 35.835937s-18.765625-35.675781-18.847656-35.832031c-2.476562-4.707032-8.246094-3.398438-12.089844-1.242188-2.355468 1.324219-3.535156 2.894532-3.535156 4.710938 0 .417968.125.953125.371094 1.613281l25.667968 44.390625c.25.332031.375.871094.375 1.613281v31.246094c0 1.574219.804688 2.8125 2.417969 3.722656 1.609375.910157 3.488281 1.363281 5.640625 1.363281 2.230469 0 4.132813-.453124 5.703125-1.363281 1.570313-.910156 2.355469-2.148437 2.355469-3.722656v-31.246094c0-.578125.164062-1.117187.496094-1.613281l25.542968-44.390625c.25-.414063.375-.949219.375-1.613281 0-1.816406-1.179687-3.390625-3.535156-4.710938zm0 0"/><path d="m290 170c5.511719 0 10-4.488281 10-10 0-5.519531-4.488281-10-10-10s-10 4.480469-10 10c0 5.511719 4.488281 10 10 10zm0 0"/><path d="m130 170c5.511719 0 10-4.488281 10-10 0-5.519531-4.488281-10-10-10-5.519531 0-10 4.480469-10 10 0 5.511719 4.480469 10 10 10zm0 0"/><path d="m170 170h80c5.511719 0 10-4.488281 10-10 0-5.519531-4.488281-10-10-10h-80c-5.511719 0-10 4.480469-10 10 0 5.511719 4.488281 10 10 10zm0 0"/><path d="m130 442c-5.511719 0-10 4.480469-10 10 0 5.511719 4.488281 10 10 10s10-4.488281 10-10c0-5.519531-4.488281-10-10-10zm0 0"/><path d="m250 442h-80c-5.519531 0-10 4.480469-10 10 0 5.511719 4.480469 10 10 10h80c5.511719 0 10-4.488281 10-10 0-5.519531-4.488281-10-10-10zm0 0"/><path d="m290 442c-5.511719 0-10 4.480469-10 10 0 5.511719 4.488281 10 10 10s10-4.488281 10-10c0-5.519531-4.488281-10-10-10zm0 0"/></svg>